<svg clip-rule="evenodd" fill-rule="evenodd" stroke-linejoin="round" stroke-miterlimit="2" viewBox="0 0 600 250"
    xmlns="http://www.w3.org/2000/svg">
    <g fill="#dc313b">
        <path d="m137.4 446.9v-18.3c-5.7 6.2-12.4 10.8-20.2 13.8s-16.5 4.5-26.4 4.5c-18.9 0-34.5-5.9-46.6-17.7s-18.2-26.8-18.2-45c0-18.4 6-33.1 18.1-44.2s28.1-16.6 48.1-16.6c8.4 0 16.2 1 23.2 3.2 7.1 2.1 13.5 5.3 19.2 9.5v-15c0-7.5-3-13.1-8.8-16.8-5.9-3.7-14.9-5.5-27-5.5-10 0-19.2.9-28 2.6-8.7 1.7-16.5 4.3-23.6 7.7l10.1-42.9c9.8-2 18.9-3.6 27.3-4.5 8.4-1 16.1-1.5 23.2-1.5 23.7 0 41.1 4.7 52.1 14.2 11.1 9.5 16.6 24.4 16.6 44.7v123.9zm-67-64.1c0 8.2 2.9 14.6 8.5 19.3 5.7 4.6 13.7 6.9 23.9 6.9 10 0 17.8-2.2 23.4-6.7 5.7-4.5 8.5-10.8 8.5-18.8 0-8.2-2.8-14.7-8.4-19.4s-13.3-7-23.1-7c-10.3 0-18.4 2.3-24.1 6.8-5.9 4.6-8.7 10.9-8.7 18.9z" fill-rule="nonzero" transform="translate(-26 -201)"/>
        <path d="m556.3 67h43.7v178.9h-43.7z"/>
        <g fill-rule="nonzero" transform="translate(-26 -201)">
            <path d="m609.1 204-40.7 25.1 16.6 27.4 41.1-25.3z"/>
            <path d="m560.8 408.7c-2.7 0-5.9.1-9.6.1-12.3 0-20.7-2.5-25.4-7.3-4.7-4.9-7-14.2-7-27.9v-76.8l45.9-28.3-16.6-27.5-29.3 18.1v-47.6l-44.6 26.2v135.5c0 26.4 5.5 45.7 16.4 57.8s28.1 18.2 51.7 18.2c2 0 6-.2 12-.5 1.5-.1 2.6-.2 3.4-.2l10.9-40.1c-2.6.1-5.1.2-7.8.3z"/>
            <path d="m283.2 443 46-29.4 1.6 2.6 2.6-13.6h-93.6l90.9-137.5h-149.3l-9.4 38.5h83.3l-91.9 139.4z"/>
            <path d="m494 398.6c-14 23.2-34.5 35.9-53.5 43-12.2 4.6-25.3 5.9-38.6 5.9-13.1 0-25.3-2.2-36.7-6.7-11.3-4.5-21.5-11-30.6-19.7-9.1-8.8-16.1-18.9-20.9-30.1s-7.2-23.2-7.2-35.9c0-12.9 2.4-24.8 7-35.9 4.7-11 11.7-21.1 21.1-30 9-8.9 19.1-15.6 30.1-19.9s23.4-6.5 37.1-6.5c18.5 0 35.1 4.5 49.8 13.6 14.6 9 26.7 22.1 36.2 39.4l-123.2 76.5c5.3 5 11.2 8.7 17.8 11.2 6.5 2.5 13.7 3.7 21.5 3.7 7.9 0 16.2-2.1 25.3-4.9 12.5-3.9 38.2-21.7 56.5-50.4l4.7 45.4zm-143.7-37.4 80.1-49.2c-3.5-4-7.7-6.9-12.6-8.9s-10.4-3-16.5-3c-14.7 0-26.9 5-36.7 15.1-9.8 10-14.6 22.8-14.6 38.2 0 2.1 0 3.8.1 4.8 0 1.1.1 2.1.2 3z"/>
        </g>
    </g>
</svg>
